<svg width="118" height="87" viewBox="0 0 118 87" fill="none" xmlns="http://www.w3.org/2000/svg">
<path d="M58.9084 50.1375C46.0745 50.1375 35.6797 39.7427 35.6797 26.9089C35.6797 14.0751 46.0745 3.68024 58.9084 3.68024C71.7422 3.68024 82.137 14.0751 82.137 26.9089C82.137 39.7427 71.7422 50.1375 58.9084 50.1375Z" fill="url(#paint0_linear_103_334)"/>
<path d="M52.4372 18.2926C50.9054 19.5651 49.7036 21.2383 49.0673 23.1707C48.7138 24.2075 48.5253 25.3387 48.5253 26.4934V39.0539C48.5253 40.1379 47.6533 41.0098 46.5693 41.0098C45.4853 41.0098 44.6134 40.1379 44.6134 39.0539V26.4934C44.6134 22.6758 46.098 19.1881 48.5017 16.6194C50.1513 14.852 52.2486 13.4852 54.6052 12.7311C55.8777 12.3069 57.1739 13.2495 57.1739 14.5692C57.1739 15.4176 56.6319 16.1481 55.8306 16.4309C54.5816 16.8079 53.4269 17.4678 52.4372 18.2926Z" fill="white"/>
<path d="M73.6459 26.3992C73.693 34.3408 67.236 40.9156 59.2944 40.9863C59.2473 40.9863 59.1766 40.9863 59.1295 40.9863C55.4297 40.9863 52.4368 37.9699 52.4368 34.2701V26.5877C52.4368 26.5641 52.4368 26.517 52.4368 26.4934C52.4368 22.6287 55.7124 19.518 59.6243 19.8008C62.9471 20.0364 65.6336 22.7465 65.8457 26.0692C65.9871 28.3551 64.9737 30.4289 63.3477 31.725C62.0987 32.7383 60.2135 31.7957 60.2135 30.1932C60.2135 29.6041 60.4727 29.0621 60.9204 28.685C61.5803 28.143 61.9809 27.3182 61.9573 26.4227C61.9102 24.9616 60.7319 23.7598 59.2708 23.6891C57.6448 23.6184 56.3016 24.9145 56.3016 26.517C56.3016 26.5405 56.3016 26.5877 56.3016 26.6112V34.0816C56.3016 35.7783 57.692 37.1687 59.3887 37.1215C59.4122 37.1215 59.4594 37.1215 59.4829 37.1215C64.8795 36.933 69.3334 32.644 69.7104 27.2475C70.0403 22.228 66.8826 17.892 62.4051 16.4309C61.6038 16.1717 61.0618 15.4411 61.0618 14.6163V14.5456C61.0618 13.2495 62.3108 12.3069 63.5598 12.7075C69.3805 14.5456 73.5988 19.9657 73.6459 26.3992Z" fill="white"/>
<path d="M84.818 26.9089C84.818 41.218 73.2182 52.8178 58.9091 52.8178C44.6 52.8178 33.0002 41.218 33.0002 26.9089C33.0002 12.5998 44.6 1 58.9091 1C73.2182 1 84.818 12.5998 84.818 26.9089Z" stroke="#F58220" stroke-width="2"/>
<path d="M0 82.1633V64.9662H6.78479C8.08913 64.9662 9.20034 65.2153 10.1184 65.7136C11.0365 66.2062 11.7362 66.8919 12.2177 67.7708C12.7047 68.6441 12.9482 69.6518 12.9482 70.7937C12.9482 71.9357 12.7019 72.9434 12.2093 73.8167C11.7166 74.69 11.0029 75.3701 10.068 75.8572C9.13876 76.3442 8.01356 76.5877 6.69243 76.5877H2.36796V73.6739H6.10463C6.80439 73.6739 7.38098 73.5536 7.83442 73.3129C8.29346 73.0665 8.63494 72.7279 8.85886 72.2968C9.08838 71.8602 9.20313 71.3591 9.20313 70.7937C9.20313 70.2228 9.08838 69.7245 8.85886 69.2991C8.63494 68.868 8.29346 68.5349 7.83442 68.2998C7.37538 68.0591 6.79319 67.9388 6.08784 67.9388H3.63591V82.1633H0Z" fill="#090808"/>
<path d="M20.8624 82.4152C19.5581 82.4152 18.4301 82.1381 17.4784 81.5839C16.5323 81.0241 15.8018 80.246 15.2868 79.2495C14.7718 78.2475 14.5142 77.0859 14.5142 75.7648C14.5142 74.4325 14.7718 73.2681 15.2868 72.2716C15.8018 71.2696 16.5323 70.4915 17.4784 69.9373C18.4301 69.3775 19.5581 69.0976 20.8624 69.0976C22.1667 69.0976 23.2919 69.3775 24.238 69.9373C25.1897 70.4915 25.923 71.2696 26.438 72.2716C26.953 73.2681 27.2105 74.4325 27.2105 75.7648C27.2105 77.0859 26.953 78.2475 26.438 79.2495C25.923 80.246 25.1897 81.0241 24.238 81.5839C23.2919 82.1381 22.1667 82.4152 20.8624 82.4152ZM20.8792 79.6442C21.4726 79.6442 21.968 79.4763 22.3655 79.1404C22.7629 78.7989 23.0624 78.3343 23.2639 77.7465C23.4711 77.1587 23.5746 76.4897 23.5746 75.7396C23.5746 74.9895 23.4711 74.3205 23.2639 73.7327C23.0624 73.1449 22.7629 72.6803 22.3655 72.3388C21.968 71.9973 21.4726 71.8266 20.8792 71.8266C20.2802 71.8266 19.7764 71.9973 19.3677 72.3388C18.9647 72.6803 18.6596 73.1449 18.4525 73.7327C18.2509 74.3205 18.1502 74.9895 18.1502 75.7396C18.1502 76.4897 18.2509 77.1587 18.4525 77.7465C18.6596 78.3343 18.9647 78.7989 19.3677 79.1404C19.7764 79.4763 20.2802 79.6442 20.8792 79.6442Z" fill="#090808"/>
<path d="M33.1136 64.9662V82.1633H29.5365V64.9662H33.1136Z" fill="#090808"/>
<path d="M35.9791 82.1633V69.2655H39.5563V82.1633H35.9791ZM37.7761 67.6029C37.2443 67.6029 36.788 67.4265 36.4074 67.0739C36.0323 66.7156 35.8448 66.2873 35.8448 65.7891C35.8448 65.2965 36.0323 64.8738 36.4074 64.5212C36.788 64.1629 37.2443 63.9838 37.7761 63.9838C38.3079 63.9838 38.7613 64.1629 39.1364 64.5212C39.5171 64.8738 39.7074 65.2965 39.7074 65.7891C39.7074 66.2873 39.5171 66.7156 39.1364 67.0739C38.7613 67.4265 38.3079 67.6029 37.7761 67.6029Z" fill="#090808"/>
<path d="M48.2493 82.4152C46.9281 82.4152 45.7917 82.1353 44.8401 81.5755C43.894 81.0101 43.1663 80.2264 42.6569 79.2244C42.153 78.2223 41.9011 77.0691 41.9011 75.7648C41.9011 74.4437 42.1558 73.2849 42.6653 72.2884C43.1803 71.2864 43.9108 70.5055 44.8569 69.9456C45.8029 69.3803 46.9281 69.0976 48.2325 69.0976C49.3577 69.0976 50.3429 69.3019 51.1882 69.7105C52.0335 70.1192 52.7025 70.693 53.1951 71.4319C53.6877 72.1709 53.9592 73.0386 54.0096 74.035H50.634C50.5389 73.3912 50.287 72.8734 49.8783 72.4815C49.4752 72.0841 48.9462 71.8854 48.2913 71.8854C47.7371 71.8854 47.2528 72.0365 46.8386 72.3388C46.4299 72.6355 46.1108 73.0693 45.8813 73.6403C45.6518 74.2113 45.537 74.9027 45.537 75.7144C45.537 76.5373 45.649 77.2371 45.8729 77.8137C46.1024 78.3903 46.4243 78.8297 46.8386 79.132C47.2528 79.4343 47.7371 79.5854 48.2913 79.5854C48.6999 79.5854 49.0666 79.5015 49.3913 79.3335C49.7216 79.1656 49.9931 78.9221 50.2058 78.603C50.4241 78.2783 50.5669 77.8892 50.634 77.4358H54.0096C53.9537 78.421 53.6849 79.2887 53.2035 80.0389C52.7277 80.7834 52.0699 81.3656 51.2302 81.7854C50.3905 82.2053 49.3969 82.4152 48.2493 82.4152Z" fill="#090808"/>
<path d="M58.5083 87C58.0549 87 57.6294 86.9636 57.232 86.8908C56.8401 86.8237 56.5154 86.7369 56.2579 86.6305L57.064 83.9603C57.4839 84.089 57.8618 84.159 58.1976 84.1702C58.5391 84.1814 58.833 84.103 59.0793 83.9351C59.3312 83.7671 59.5356 83.4816 59.6923 83.0786L59.9022 82.5328L55.2755 69.2655H59.0373L61.7076 78.7373H61.842L64.5374 69.2655H68.3245L63.3114 83.5572C63.0707 84.2514 62.7432 84.856 62.329 85.371C61.9203 85.8916 61.4025 86.2918 60.7755 86.5718C60.1486 86.8572 59.3928 87 58.5083 87Z" fill="#090808"/>
<path d="M70.2222 82.1633V64.9662H77.007C78.3113 64.9662 79.4225 65.2153 80.3406 65.7136C81.2587 66.2062 81.9584 66.8919 82.4398 67.7708C82.9269 68.6441 83.1704 69.6518 83.1704 70.7937C83.1704 71.9357 82.9241 72.9434 82.4314 73.8167C81.9388 74.69 81.2251 75.3701 80.2902 75.8572C79.3609 76.3442 78.2357 76.5877 76.9146 76.5877H72.5901V73.6739H76.3268C77.0266 73.6739 77.6032 73.5536 78.0566 73.3129C78.5156 73.0665 78.8571 72.7279 79.081 72.2968C79.3106 71.8602 79.4253 71.3591 79.4253 70.7937C79.4253 70.2228 79.3106 69.7245 79.081 69.2991C78.8571 68.868 78.5156 68.5349 78.0566 68.2998C77.5976 68.0591 77.0154 67.9388 76.31 67.9388H73.8581V82.1633H70.2222Z" fill="#090808"/>
<path d="M89.042 64.9662V82.1633H85.4649V64.9662H89.042Z" fill="#090808"/>
<path d="M100.179 76.6717V69.2655H103.756V82.1633H100.321V79.8205H100.187C99.8959 80.5763 99.4116 81.1837 98.7343 81.6427C98.0625 82.1017 97.2424 82.3313 96.2739 82.3313C95.4118 82.3313 94.6533 82.1353 93.9983 81.7435C93.3434 81.3516 92.8312 80.7946 92.4617 80.0725C92.0978 79.3503 91.9131 78.4854 91.9075 77.4778V69.2655H95.4846V76.8396C95.4902 77.6009 95.6945 78.2027 96.0976 78.645C96.5007 79.0872 97.0409 79.3083 97.7182 79.3083C98.1493 79.3083 98.5523 79.2104 98.9274 79.0144C99.3025 78.8129 99.6048 78.5162 99.8343 78.1243C100.069 77.7325 100.184 77.2483 100.179 76.6717Z" fill="#090808"/>
<path d="M117.348 72.9434L114.074 73.1449C114.018 72.865 113.897 72.6131 113.712 72.3892C113.528 72.1597 113.284 71.9777 112.982 71.8434C112.685 71.7034 112.33 71.6335 111.915 71.6335C111.361 71.6335 110.894 71.751 110.513 71.9861C110.133 72.2156 109.942 72.5235 109.942 72.9098C109.942 73.2177 110.065 73.478 110.312 73.6907C110.558 73.9034 110.981 74.0742 111.58 74.2029L113.914 74.6732C115.168 74.9307 116.103 75.3449 116.719 75.9159C117.334 76.4869 117.642 77.2371 117.642 78.1663C117.642 79.0116 117.393 79.7534 116.895 80.3915C116.402 81.0297 115.725 81.5279 114.863 81.8862C114.006 82.2389 113.018 82.4152 111.899 82.4152C110.191 82.4152 108.831 82.0598 107.818 81.3488C106.81 80.6323 106.22 79.6582 106.046 78.4266L109.564 78.2419C109.671 78.7625 109.928 79.16 110.337 79.4343C110.745 79.703 111.269 79.8373 111.907 79.8373C112.534 79.8373 113.038 79.717 113.419 79.4763C113.805 79.23 114.001 78.9137 114.006 78.5274C114.001 78.2027 113.864 77.9368 113.595 77.7297C113.326 77.517 112.912 77.3546 112.352 77.2427L110.119 76.7976C108.859 76.5457 107.921 76.1091 107.306 75.4877C106.695 74.8663 106.39 74.0742 106.39 73.1113C106.39 72.2828 106.614 71.5691 107.062 70.9701C107.515 70.3711 108.151 69.9093 108.968 69.5846C109.791 69.2599 110.754 69.0976 111.857 69.0976C113.486 69.0976 114.768 69.4418 115.703 70.1304C116.643 70.8189 117.192 71.7566 117.348 72.9434Z" fill="#090808"/>
<defs>
<linearGradient id="paint0_linear_103_334" x1="35.6797" y1="26.9089" x2="82.137" y2="26.9089" gradientUnits="userSpaceOnUse">
<stop stop-color="#F58220"/>
<stop offset="1" stop-color="#EB7816"/>
</linearGradient>
</defs>
</svg>
